<mxfile host="app.diagrams.net" modified="2023-11-16T04:57:08.583Z" agent="Mozilla/5.0 (Windows NT 10.0; Win64; x64) AppleWebKit/537.36 (KHTML, like Gecko) Chrome/119.0.0.0 Safari/537.36" etag="r1kdqkg4uPS262rBhAcb" version="22.1.2" type="github">
  <diagram id="C5RBs43oDa-KdzZeNtuy" name="Page-1">
    <mxGraphModel dx="1805" dy="622" grid="1" gridSize="10" guides="1" tooltips="1" connect="1" arrows="1" fold="1" page="1" pageScale="1" pageWidth="827" pageHeight="1169" background="none" math="0" shadow="0">
      <root>
        <mxCell id="WIyWlLk6GJQsqaUBKTNV-0" />
        <mxCell id="WIyWlLk6GJQsqaUBKTNV-1" parent="WIyWlLk6GJQsqaUBKTNV-0" />
        <mxCell id="kc2aSsI8_Fk6eoUfhXqJ-3" value="" style="edgeStyle=orthogonalEdgeStyle;rounded=1;orthogonalLoop=1;jettySize=auto;html=1;noEdgeStyle=1;orthogonal=1;" edge="1" parent="WIyWlLk6GJQsqaUBKTNV-1" source="kc2aSsI8_Fk6eoUfhXqJ-1" target="kc2aSsI8_Fk6eoUfhXqJ-2">
          <mxGeometry relative="1" as="geometry" />
        </mxCell>
        <mxCell id="kc2aSsI8_Fk6eoUfhXqJ-1" value="&lt;h2&gt;Molienda&lt;/h2&gt;" style="rounded=1;whiteSpace=wrap;html=1;" vertex="1" parent="WIyWlLk6GJQsqaUBKTNV-1">
          <mxGeometry x="-620" y="512.5" width="130" height="80" as="geometry" />
        </mxCell>
        <mxCell id="kc2aSsI8_Fk6eoUfhXqJ-16" value="" style="edgeStyle=orthogonalEdgeStyle;rounded=0;orthogonalLoop=1;jettySize=auto;html=1;" edge="1" parent="WIyWlLk6GJQsqaUBKTNV-1" source="kc2aSsI8_Fk6eoUfhXqJ-2" target="kc2aSsI8_Fk6eoUfhXqJ-15">
          <mxGeometry relative="1" as="geometry" />
        </mxCell>
        <mxCell id="kc2aSsI8_Fk6eoUfhXqJ-2" value="&lt;h2&gt;Filtro&lt;/h2&gt;" style="whiteSpace=wrap;html=1;rounded=1;" vertex="1" parent="WIyWlLk6GJQsqaUBKTNV-1">
          <mxGeometry x="-330" y="512.5" width="120" height="85" as="geometry" />
        </mxCell>
        <mxCell id="kc2aSsI8_Fk6eoUfhXqJ-5" value="" style="endArrow=classic;html=1;rounded=1;entryX=0;entryY=0.5;entryDx=0;entryDy=0;" edge="1" parent="WIyWlLk6GJQsqaUBKTNV-1" target="kc2aSsI8_Fk6eoUfhXqJ-1">
          <mxGeometry width="50" height="50" relative="1" as="geometry">
            <mxPoint x="-760" y="553" as="sourcePoint" />
            <mxPoint x="-610" y="542.5" as="targetPoint" />
          </mxGeometry>
        </mxCell>
        <mxCell id="kc2aSsI8_Fk6eoUfhXqJ-6" value="&lt;span style=&quot;font-size: 13.8889px;&quot;&gt;&lt;font data-font-src=&quot;https://fonts.googleapis.com/css?family=Inter&quot; face=&quot;Inter&quot;&gt;m&lt;sub&gt;1&amp;nbsp;&lt;/sub&gt;= 15 kg/h&lt;/font&gt;&lt;/span&gt;" style="text;html=1;strokeColor=none;fillColor=none;align=center;verticalAlign=middle;whiteSpace=wrap;rounded=1;fontSize=20;fontFamily=Architects Daughter;" vertex="1" parent="WIyWlLk6GJQsqaUBKTNV-1">
          <mxGeometry x="-770" y="520" width="120" height="30" as="geometry" />
        </mxCell>
        <mxCell id="kc2aSsI8_Fk6eoUfhXqJ-7" value="" style="endArrow=classic;html=1;rounded=1;" edge="1" parent="WIyWlLk6GJQsqaUBKTNV-1">
          <mxGeometry width="50" height="50" relative="1" as="geometry">
            <mxPoint x="-410" y="400" as="sourcePoint" />
            <mxPoint x="-410" y="550" as="targetPoint" />
          </mxGeometry>
        </mxCell>
        <mxCell id="kc2aSsI8_Fk6eoUfhXqJ-9" value="" style="endArrow=classic;html=1;rounded=1;" edge="1" parent="WIyWlLk6GJQsqaUBKTNV-1">
          <mxGeometry width="50" height="50" relative="1" as="geometry">
            <mxPoint x="-555.4" y="592.5" as="sourcePoint" />
            <mxPoint x="-555.4" y="702.5" as="targetPoint" />
          </mxGeometry>
        </mxCell>
        <mxCell id="kc2aSsI8_Fk6eoUfhXqJ-10" value="&lt;h2&gt;Molienda&lt;/h2&gt;" style="rounded=1;whiteSpace=wrap;html=1;" vertex="1" parent="WIyWlLk6GJQsqaUBKTNV-1">
          <mxGeometry x="-620" y="700" width="130" height="80" as="geometry" />
        </mxCell>
        <mxCell id="kc2aSsI8_Fk6eoUfhXqJ-11" value="" style="edgeStyle=orthogonalEdgeStyle;rounded=1;orthogonalLoop=1;jettySize=auto;html=1;noEdgeStyle=1;orthogonal=1;" edge="1" parent="WIyWlLk6GJQsqaUBKTNV-1">
          <mxGeometry relative="1" as="geometry">
            <mxPoint x="-490" y="739.6" as="sourcePoint" />
            <mxPoint x="-410" y="560" as="targetPoint" />
            <Array as="points">
              <mxPoint x="-410" y="740" />
            </Array>
          </mxGeometry>
        </mxCell>
        <mxCell id="kc2aSsI8_Fk6eoUfhXqJ-12" value="" style="endArrow=classic;html=1;rounded=1;" edge="1" parent="WIyWlLk6GJQsqaUBKTNV-1">
          <mxGeometry width="50" height="50" relative="1" as="geometry">
            <mxPoint x="-555.4" y="780" as="sourcePoint" />
            <mxPoint x="-555" y="850" as="targetPoint" />
          </mxGeometry>
        </mxCell>
        <mxCell id="kc2aSsI8_Fk6eoUfhXqJ-13" value="" style="endArrow=classic;html=1;rounded=1;" edge="1" parent="WIyWlLk6GJQsqaUBKTNV-1">
          <mxGeometry width="50" height="50" relative="1" as="geometry">
            <mxPoint x="-270" y="597.5" as="sourcePoint" />
            <mxPoint x="-270" y="680" as="targetPoint" />
          </mxGeometry>
        </mxCell>
        <mxCell id="kc2aSsI8_Fk6eoUfhXqJ-15" value="&lt;h2 style=&quot;&quot;&gt;Destilador&lt;/h2&gt;" style="whiteSpace=wrap;html=1;rounded=1;align=center;arcSize=17;" vertex="1" parent="WIyWlLk6GJQsqaUBKTNV-1">
          <mxGeometry x="-110" y="420" width="90" height="270" as="geometry" />
        </mxCell>
        <mxCell id="kc2aSsI8_Fk6eoUfhXqJ-20" value="" style="endArrow=classic;html=1;rounded=0;" edge="1" parent="WIyWlLk6GJQsqaUBKTNV-1" source="kc2aSsI8_Fk6eoUfhXqJ-15">
          <mxGeometry width="50" height="50" relative="1" as="geometry">
            <mxPoint x="-65" y="399.28932188134524" as="sourcePoint" />
            <mxPoint x="90" y="380" as="targetPoint" />
            <Array as="points">
              <mxPoint x="-65" y="380" />
            </Array>
          </mxGeometry>
        </mxCell>
        <mxCell id="kc2aSsI8_Fk6eoUfhXqJ-21" value="" style="endArrow=classic;html=1;rounded=0;" edge="1" parent="WIyWlLk6GJQsqaUBKTNV-1" source="kc2aSsI8_Fk6eoUfhXqJ-15">
          <mxGeometry width="50" height="50" relative="1" as="geometry">
            <mxPoint x="-65" y="740" as="sourcePoint" />
            <mxPoint x="90" y="730" as="targetPoint" />
            <Array as="points">
              <mxPoint x="-65" y="730" />
            </Array>
          </mxGeometry>
        </mxCell>
      </root>
    </mxGraphModel>
  </diagram>
</mxfile>
